<svg width="22" height="22" viewBox="0 0 22 22" fill="none" xmlns="http://www.w3.org/2000/svg">
<g id="Frame 13">
<g id="Group 1">
<path id="Vector" d="M18.7946 3.19705C16.7263 1.1366 13.9761 0.00125713 11.046 0C5.00807 0 0.0943826 4.89019 0.0919653 10.9009C0.0912618 12.8223 0.595538 14.6978 1.55403 16.351L0 22L5.80687 20.4842C7.40678 21.3528 9.20817 21.8105 11.0413 21.8113H11.046H11.046C17.083 21.8113 21.9974 16.9202 22 10.9098C22.001 7.99667 20.8626 5.25764 18.7946 3.19705ZM11.046 19.97H11.0425C9.40849 19.9692 7.80615 19.5325 6.40853 18.7068L6.07592 18.5105L2.62999 19.41L3.55001 16.0665L3.3333 15.7237C2.42186 14.2809 1.94069 12.6136 1.94137 10.9016C1.94338 5.90569 6.02744 1.84128 11.0495 1.84128C13.4814 1.84228 15.7671 2.78599 17.4862 4.49857C19.2052 6.21114 20.1512 8.48776 20.1504 10.909C20.1483 15.9051 16.0641 19.97 11.046 19.97Z" fill="#E0E0E0"/>
<path id="Vector_2" d="M0 22L1.5541 16.3509C0.595318 14.6976 0.0911162 12.8219 0.0917211 10.9009C0.0942353 4.89015 5.00818 0 11.0459 0C13.9763 0.00131733 16.7266 1.13663 18.7945 3.19718C20.8628 5.25771 22.0012 7.9966 22 10.9094C21.9975 16.9203 17.0832 21.8109 11.0463 21.8109C11.0466 21.8109 11.0459 21.8109 11.0463 21.8109H11.0414C9.2082 21.8103 7.40688 21.3522 5.80701 20.4842L0 22Z" fill="url(#paint0_linear_46_125)"/>
<path id="Vector_3" fill-rule="evenodd" clip-rule="evenodd" d="M8.54243 6.4646C8.35814 6.0228 8.16411 6.01396 7.98878 6.00623C7.84537 5.9996 7.68119 6 7.51728 6C7.35324 6 7.08666 6.06648 6.86123 6.33194C6.63567 6.5974 6 7.23914 6 8.54433C6 9.84966 6.88174 11.1109 7.00464 11.288C7.12768 11.4649 8.70674 14.229 11.2075 15.2923C13.2859 16.176 13.7088 16.0003 14.1599 15.956C14.6111 15.9118 15.6156 15.3144 15.8206 14.6949C16.0257 14.0756 16.0257 13.5447 15.9642 13.4337C15.9026 13.3231 15.7386 13.2568 15.4925 13.1241C15.2465 12.9915 14.0369 12.3496 13.8113 12.2612C13.5858 12.1727 13.4217 12.1285 13.2577 12.3941C13.0936 12.6594 12.6224 13.2568 12.4789 13.4337C12.3353 13.611 12.1918 13.6331 11.9457 13.5004C11.6996 13.3674 10.9072 13.0875 9.96719 12.1838C9.23578 11.4807 8.74197 10.6123 8.59843 10.3467C8.45489 10.0814 8.58305 9.93765 8.70647 9.8054C8.81694 9.68655 8.95254 9.49572 9.07557 9.3408C9.19834 9.18589 9.23935 9.07534 9.32138 8.89846C9.4034 8.7213 9.36239 8.5664 9.30087 8.43374C9.23935 8.30108 8.7612 6.98916 8.54243 6.4646Z" fill="white"/>
<path id="Vector_4" d="M18.7946 3.19706C16.7263 1.13661 13.9761 0.00128989 11.0461 0C5.00807 0 0.0943837 4.89018 0.0919566 10.9009C0.0912449 12.8223 0.595519 14.6978 1.55401 16.351L0 22L5.80688 20.4841C7.4068 21.3528 9.20818 21.8105 11.0413 21.8112H11.046H11.0461C17.083 21.8112 21.9974 16.9202 22 10.9097C22.001 7.99668 20.8626 5.25766 18.7946 3.19706ZM11.0461 19.9701H11.0425C9.4085 19.9692 7.80615 19.5325 6.40853 18.7069L6.07591 18.5106L2.62999 19.41L3.54999 16.0665L3.33329 15.7237C2.42184 14.281 1.94067 12.6136 1.94138 10.9016C1.94337 5.90573 6.02744 1.84131 11.0495 1.84131C13.4814 1.84231 15.7671 2.78602 17.4862 4.4986C19.2052 6.21118 20.1512 8.48779 20.1504 10.909C20.1483 15.9051 16.0641 19.9701 11.0461 19.9701Z" fill="white"/>
</g>
</g>
<defs>
<linearGradient id="paint0_linear_46_125" x1="11" y1="22" x2="11" y2="3.67164e-05" gradientUnits="userSpaceOnUse">
<stop stop-color="#20B038"/>
<stop offset="1" stop-color="#60D66A"/>
</linearGradient>
</defs>
</svg>
