<svg width="12" height="12" viewBox="0 0 12 12" fill="none" xmlns="http://www.w3.org/2000/svg">
<g id="instagram" clip-path="url(#clip0_46_111)">
<g id="Group">
<path id="Vector" d="M9.1875 12H2.8125C1.2592 12 0 10.7408 0 9.1875V2.8125C0 1.2592 1.2592 0 2.8125 0H9.1875C10.7408 0 12 1.2592 12 2.8125V9.1875C12 10.7408 10.7408 12 9.1875 12Z" fill="url(#paint0_radial_46_111)"/>
<path id="Vector_2" d="M9.1875 12H2.8125C1.2592 12 0 10.7408 0 9.1875V2.8125C0 1.2592 1.2592 0 2.8125 0H9.1875C10.7408 0 12 1.2592 12 2.8125V9.1875C12 10.7408 10.7408 12 9.1875 12Z" fill="url(#paint1_radial_46_111)"/>
<path id="Vector_3" d="M6.00042 10.6875C4.72739 10.6875 4.56759 10.6819 4.06763 10.6592C3.56859 10.6363 3.22795 10.5573 2.92992 10.4414C2.62158 10.3217 2.36006 10.1615 2.09953 9.90089C1.83877 9.64031 1.67859 9.3788 1.5585 9.07059C1.44225 8.77247 1.36317 8.43169 1.34072 7.93289C1.31836 7.43288 1.3125 7.27303 1.3125 5.99995C1.3125 4.72688 1.31813 4.56759 1.34081 4.06763C1.36378 3.56859 1.44277 3.22795 1.55859 2.92992C1.67841 2.62158 1.83858 2.36006 2.0992 2.09953C2.35969 1.83877 2.6212 1.67822 2.92931 1.5585C3.22758 1.44258 3.56827 1.3636 4.0672 1.34072C4.56722 1.31799 4.72688 1.31241 5.99986 1.31241C7.27303 1.31241 7.43231 1.31799 7.93228 1.34072C8.43131 1.3636 8.77233 1.44258 9.07059 1.5585C9.3788 1.67822 9.63994 1.83877 9.90037 2.09953C10.1611 2.36006 10.3213 2.62158 10.4414 2.92978C10.5566 3.22795 10.6357 3.56869 10.6592 4.06753C10.6816 4.5675 10.6875 4.72688 10.6875 5.99995C10.6875 7.27303 10.6816 7.43278 10.6592 7.9328C10.6357 8.43183 10.5566 8.77242 10.4414 9.07045C10.3213 9.3788 10.1611 9.64031 9.90037 9.90089C9.63966 10.1616 9.37889 10.3218 9.07031 10.4414C8.77148 10.5573 8.43066 10.6364 7.93162 10.6592C7.43161 10.6819 7.27242 10.6875 5.99897 10.6875H6.00042ZM5.57991 9.84277C5.70473 9.84295 5.844 9.84277 6.00042 9.84277C7.25203 9.84277 7.40034 9.83827 7.89459 9.81581C8.35162 9.79491 8.59969 9.71855 8.76492 9.65438C8.98369 9.56944 9.13964 9.46786 9.30361 9.30375C9.46767 9.13969 9.5692 8.98345 9.65438 8.76469C9.71855 8.59969 9.795 8.35163 9.81581 7.89459C9.83827 7.40044 9.84314 7.25203 9.84314 6.00103C9.84314 4.75003 9.83827 4.60158 9.81581 4.10747C9.79491 3.65044 9.71855 3.40238 9.65438 3.23733C9.56944 3.01856 9.46767 2.8628 9.30361 2.69883C9.13955 2.53477 8.98378 2.43324 8.76492 2.34825C8.59988 2.2838 8.35162 2.20763 7.89459 2.18672C7.40044 2.16427 7.25203 2.15939 6.00042 2.15939C4.74877 2.15939 4.60041 2.16427 4.1063 2.18672C3.64927 2.20781 3.4012 2.28417 3.23583 2.34835C3.01711 2.43333 2.86083 2.53486 2.69677 2.69892C2.5327 2.86299 2.43117 3.01884 2.346 3.2377C2.28183 3.40275 2.20538 3.65081 2.18456 4.10784C2.16211 4.602 2.15761 4.75041 2.15761 6.0022C2.15761 7.254 2.16211 7.40161 2.18456 7.89577C2.20547 8.3528 2.28183 8.60086 2.346 8.76609C2.43098 8.98486 2.5327 9.14109 2.69681 9.30516C2.86092 9.46922 3.01711 9.5708 3.23587 9.65592C3.40111 9.72038 3.64927 9.79655 4.1063 9.81755C4.53872 9.83709 4.7063 9.84295 5.57991 9.84394V9.84277ZM8.50261 9.06445C8.19206 9.06445 7.94011 8.81273 7.94011 8.50214C7.94011 8.19159 8.19206 7.93964 8.50261 7.93964C8.81316 7.93964 9.06511 8.19159 9.06511 8.50214C9.06511 8.81269 8.81316 9.06464 8.50261 9.06464V9.06445ZM6.00042 8.40722C4.67105 8.40722 3.5932 7.32938 3.5932 5.99995C3.5932 4.67053 4.67105 3.5932 6.00042 3.5932C7.32984 3.5932 8.40731 4.67053 8.40731 5.99995C8.40731 7.32933 7.32975 8.40722 6.00033 8.40722H6.00042ZM6.00042 7.56248C6.86334 7.56248 7.56295 6.86297 7.56295 5.99995C7.56295 5.13703 6.86334 4.43742 6.00042 4.43742C5.1375 4.43742 4.43794 5.13703 4.43794 5.99995C4.43794 6.86297 5.13745 7.56248 6.00042 7.56248Z" fill="white"/>
</g>
</g>
<defs>
<radialGradient id="paint0_radial_46_111" cx="0" cy="0" r="1" gradientUnits="userSpaceOnUse" gradientTransform="translate(3.1875 -0.924234) rotate(90) scale(11.8929 11.0613)">
<stop stop-color="#FFDD55"/>
<stop offset="0.1" stop-color="#FFDD55"/>
<stop offset="0.5" stop-color="#FF543E"/>
<stop offset="1" stop-color="#C837AB"/>
</radialGradient>
<radialGradient id="paint1_radial_46_111" cx="0" cy="0" r="1" gradientUnits="userSpaceOnUse" gradientTransform="translate(-2.01005 11.1356) rotate(-78.681) scale(5.31619 21.9135)">
<stop stop-color="#3771C8"/>
<stop offset="0.128" stop-color="#3771C8"/>
<stop offset="1" stop-color="#6600FF" stop-opacity="0"/>
</radialGradient>
<clipPath id="clip0_46_111">
<rect width="12" height="12" fill="white" transform="matrix(1 0 0 -1 0 12)"/>
</clipPath>
</defs>
</svg>
