<svg width="24" height="24" viewBox="0 0 24 24" fill="none" xmlns="http://www.w3.org/2000/svg">
<path id="Vector4" d="M24 11.9985V11.9925C24 8.4415 22.454 5.2525 19.999 3.0595L19.987 3.0495C19.9567 3.01682 19.9228 2.98764 19.886 2.9625L19.884 2.9615C17.7036 1.04703 14.8996 -0.0061505 11.998 -0.000496149C8.966 -0.000496149 6.198 1.1255 4.088 2.9835L4.101 2.9725C4.07557 2.99179 4.05212 3.01357 4.031 3.0375C2.76253 4.16069 1.7472 5.5416 1.05226 7.0868C0.357326 8.632 -0.00134689 10.3072 3.80066e-06 12.0015C3.80066e-06 15.5515 1.544 18.7405 3.997 20.9345L4.009 20.9445C4.04077 20.9805 4.07631 21.0131 4.115 21.0415L4.117 21.0425C6.29684 22.9541 9.09869 24.0058 11.998 24.0005C14.9109 24.005 17.7247 22.9436 19.909 21.0165L19.896 21.0275C21.1865 19.9056 22.2209 18.5195 22.9293 16.9632C23.6377 15.4068 24.0035 13.7165 24.002 12.0065V11.9995L24 11.9985ZM19.538 19.8035C18.9436 19.3227 18.3043 18.9001 17.629 18.5415L17.564 18.5095C18.177 16.7425 18.546 14.7055 18.581 12.5865V12.5705H22.842C22.6983 15.3119 21.5184 17.8963 19.541 19.8005L19.538 19.8035ZM12.572 18.2985C13.855 18.3675 15.054 18.6495 16.16 19.1085L16.088 19.0825C15.202 21.1025 13.955 22.4905 12.572 22.7955V18.2985ZM12.572 17.1545V12.5705H17.44C17.4014 14.4688 17.0722 16.3499 16.464 18.1485L16.503 18.0175C15.2615 17.5072 13.941 17.2156 12.6 17.1555L12.573 17.1545H12.572ZM12.572 11.4265V6.8425C13.9492 6.77965 15.305 6.47817 16.579 5.9515L16.5 5.9805C17.055 7.5995 17.396 9.4655 17.44 11.4055V11.4265H12.572ZM12.572 5.6985V1.2035C13.955 1.5085 15.202 2.8905 16.088 4.9165C15.054 5.3465 13.855 5.6275 12.601 5.6975L12.572 5.6985ZM15.426 1.6985C16.6044 2.09154 17.7064 2.68416 18.684 3.4505L18.661 3.4325C18.218 3.7805 17.721 4.1085 17.197 4.3935L17.141 4.4215C16.7176 3.42223 16.1354 2.49798 15.417 1.6845L15.426 1.6955V1.6985ZM11.426 1.2065V5.6985C10.1925 5.63558 8.97891 5.36161 7.838 4.8885L7.91 4.9145C8.8 2.8945 10.045 1.5075 11.428 1.2025L11.426 1.2065ZM6.858 4.4185C6.31593 4.12686 5.79943 3.79 5.314 3.4115L5.338 3.4295C6.28714 2.68566 7.35472 2.1069 8.496 1.7175L8.572 1.6945C7.87242 2.48594 7.30238 3.38302 6.883 4.3525L6.858 4.4185ZM11.428 6.8415V11.4255H6.56C6.604 9.4645 6.945 7.5985 7.539 5.8485L7.5 5.9795C8.74106 6.48897 10.0608 6.78026 11.401 6.8405L11.428 6.8415ZM11.428 12.5695V17.1535C10.0508 17.2164 8.69504 17.5178 7.421 18.0445L7.5 18.0155C6.945 16.3975 6.604 14.5305 6.56 12.5905V12.5695H11.428ZM11.428 18.2975V22.7925C10.045 22.4875 8.798 21.1055 7.912 19.0795C8.946 18.6495 10.145 18.3695 11.399 18.2995L11.428 18.2975ZM8.578 22.2975C7.39996 21.9056 6.29794 21.3144 5.32 20.5495L5.344 20.5675C5.787 20.2195 6.284 19.8915 6.808 19.6065L6.864 19.5785C7.28389 20.5782 7.86606 21.5016 8.587 22.3115L8.578 22.3015V22.2975ZM17.142 19.5775C17.722 19.8925 18.219 20.2195 18.686 20.5845L18.662 20.5665C17.7129 21.3104 16.6453 21.8891 15.504 22.2785L15.428 22.3015C16.1276 21.5104 16.6976 20.6137 17.117 19.6445L17.142 19.5795V19.5775ZM22.842 11.4265H18.581C18.5503 9.35745 18.1933 7.30621 17.523 5.3485L17.564 5.4865C18.2704 5.11457 18.9392 4.67519 19.561 4.1745L19.537 4.1925C21.5103 6.08953 22.6906 8.66434 22.84 11.3975L22.842 11.4265ZM4.462 4.1935C5.038 4.6615 5.685 5.0905 6.371 5.4555L6.436 5.4875C5.823 7.2545 5.454 9.2915 5.419 11.4105V11.4265H1.157C1.3007 8.6851 2.48065 6.10071 4.458 4.1965L4.462 4.1935ZM1.158 12.5705H5.419C5.44966 14.6396 5.80672 16.6908 6.477 18.6485L6.436 18.5105C5.685 18.9095 5.039 19.3385 4.439 19.8225L4.463 19.8045C2.48974 17.9075 1.30937 15.3327 1.16 12.5995L1.159 12.5715L1.158 12.5705Z" fill="#263656"/>
</svg>
