<svg width="29" height="20" viewBox="0 0 29 20" fill="none" xmlns="http://www.w3.org/2000/svg">
<path id="Vector3" d="M27.986 3V17C27.986 17.5304 27.7673 18.0391 27.378 18.4142C26.9887 18.7893 26.4607 19 25.9102 19H3.07585C2.5253 19 1.9973 18.7893 1.608 18.4142C1.2187 18.0391 1 17.5304 1 17V3M27.986 3C27.986 2.46957 27.7673 1.96086 27.378 1.58579C26.9887 1.21071 26.4607 1 25.9102 1H3.07585C2.5253 1 1.9973 1.21071 1.608 1.58579C1.2187 1.96086 1 2.46957 1 3M27.986 3L15.6742 11.212C15.3271 11.4434 14.9151 11.5673 14.493 11.5673C14.071 11.5673 13.6589 11.4434 13.3119 11.212L1 3" stroke="#263656" stroke-width="2" stroke-linecap="round" stroke-linejoin="round"/>
</svg>
