<svg width="16" height="22" viewBox="0 0 16 22" fill="none" xmlns="http://www.w3.org/2000/svg">
<path id="Vector" d="M2.69925 0.482696L3.93009 0.104292C5.08207 -0.249912 6.31404 0.323195 6.80775 1.44301L7.79059 3.67383C8.21915 4.64515 7.98144 5.78806 7.20317 6.49867L5.03978 8.47649C5.17311 9.6601 5.58606 10.825 6.27862 11.9712C6.9372 13.0799 7.81966 14.0505 8.874 14.8258L11.4751 13.9898C12.4602 13.6741 13.5333 14.0382 14.1379 14.8929L15.5459 16.8839C16.2499 17.8783 16.123 19.2489 15.251 20.0915L14.3162 20.9946C13.3859 21.8933 12.0579 22.2201 10.8283 21.8504C7.92697 20.9792 5.25921 18.3931 2.82496 14.0921C0.387671 9.78367 -0.472505 6.1287 0.244435 3.12713C0.546144 1.86431 1.48099 0.857801 2.70154 0.482696" fill="#5FB00E"/>
</svg>
