<svg width="18" height="12" viewBox="0 0 18 12" fill="none" xmlns="http://www.w3.org/2000/svg">
<g id="yt" clip-path="url(#clip0_46_108)">
<path id="Vector" d="M17.6028 1.87913C17.4995 1.51593 17.2981 1.1848 17.0186 0.918735C16.7391 0.652667 16.3913 0.460938 16.0097 0.36264C14.6129 0 8.99102 0 8.99102 0C8.99102 0 3.36888 0.0109769 1.97203 0.373617C1.59047 0.471921 1.24263 0.66366 0.963131 0.92974C0.683634 1.19582 0.48224 1.52696 0.379004 1.89017C-0.0435107 4.25276 -0.207412 7.85279 0.390606 10.1209C0.493853 10.4841 0.695251 10.8152 0.974747 11.0813C1.25424 11.3473 1.60208 11.5391 1.98363 11.6374C3.38048 12 9.00249 12 9.00249 12C9.00249 12 14.6244 12 16.0212 11.6374C16.4028 11.5391 16.7506 11.3473 17.0301 11.0813C17.3096 10.8152 17.511 10.4841 17.6143 10.1209C18.0599 7.75494 18.1973 4.15711 17.6028 1.87913Z" fill="#FF0000"/>
<path id="Vector_2" d="M7.20148 8.53735L11.8652 5.97615L7.20148 3.41495V8.53735Z" fill="white"/>
</g>
<defs>
<clipPath id="clip0_46_108">
<rect width="18" height="12" fill="white"/>
</clipPath>
</defs>
</svg>
